<svg width="40" height="40" viewBox="0 0 40 40" fill="none" xmlns="http://www.w3.org/2000/svg">
<circle cx="20" cy="20" r="20" fill="white"/>
<path d="M20 0C8.95458 0 0 8.95372 0 20C0 31.0459 8.95458 40 20 40C31.0454 40 40 31.0455 40 19.9996C40 8.95373 31.0454 0 20 0ZM27.6973 29.4994C27.3736 29.4994 27.1528 29.3876 26.8507 29.203C23.9519 27.4492 20.3371 26.5273 16.5027 26.5273C14.3622 26.5273 12.2084 26.8026 10.194 27.2215C9.86663 27.2926 9.45513 27.4183 9.2079 27.4183C8.44875 27.4183 7.94291 26.8156 7.94291 26.1609C7.94291 25.3216 8.42679 24.902 9.03062 24.7869C11.5008 24.2237 13.9609 23.9021 16.5161 23.9021C20.8921 23.9021 24.7924 24.9069 28.1487 26.9185C28.648 27.2101 28.9403 27.5077 28.9403 28.2482C28.9408 28.97 28.3544 29.4994 27.6973 29.4994ZM29.8764 24.2058C29.4425 24.2058 29.1697 24.0302 28.8741 23.8586C25.6211 21.9279 21.1117 20.6453 16.1745 20.6453C13.6421 20.6453 11.4561 21.0003 9.64705 21.4822C9.25711 21.5899 9.03875 21.7054 8.67361 21.7054C7.81401 21.7054 7.11137 21.0036 7.11137 20.1374C7.11137 19.2872 7.52409 18.7024 8.35522 18.4682C10.6034 17.8501 12.9 17.3748 16.2412 17.3748C21.4764 17.3748 26.5409 18.6784 30.5221 21.0613C31.1898 21.4432 31.4354 21.9303 31.4354 22.6419C31.4354 23.5064 30.7457 24.2058 29.8764 24.2058ZM32.3576 18.0494C31.951 18.0494 31.709 17.9501 31.3276 17.7411C27.7083 15.5705 22.0896 14.3754 16.6572 14.3754C13.945 14.3754 11.191 14.6515 8.66791 15.3359C8.37718 15.4087 8.01082 15.5542 7.64282 15.5542C6.57585 15.5542 5.75692 14.7101 5.75692 13.6435C5.75692 12.5561 6.43028 11.9462 7.15651 11.7319C10.0077 10.8922 13.1899 10.501 16.6495 10.501C22.5223 10.501 28.7013 11.7091 33.2143 14.3591C33.8226 14.7044 34.2443 15.2237 34.2443 16.176C34.2435 17.2658 33.3676 18.0494 32.3576 18.0494Z" fill="#1ED760"/>
</svg>
