<svg width="24" height="24" viewBox="0 0 24 24" fill="none" xmlns="http://www.w3.org/2000/svg">
<path d="M24 0H0V24H24V0Z" fill="black"/>
<path d="M1.91189 2.61117C1.93192 2.41325 1.85644 2.21763 1.70865 2.08442L0.203232 0.270899V0H4.87757L8.49058 7.92381L11.667 0H16.1231V0.270899L14.8359 1.505C14.725 1.58958 14.6699 1.7286 14.6929 1.8662V10.9338C14.6699 11.0714 14.725 11.2104 14.8359 11.295L16.093 12.5291V12.8H9.77019V12.5291L11.0724 11.2649C11.2003 11.137 11.2003 11.0994 11.2003 10.9037V3.57437L7.5798 12.7699H7.09054L2.87536 3.57437V9.73733C2.84021 9.99644 2.92627 10.2573 3.1087 10.4447L4.8023 12.499V12.7699H0V12.499L1.6936 10.4447C1.8747 10.257 1.95574 9.9944 1.91189 9.73733V2.61117Z" transform="translate(3.81543 5.41528)" fill="white"/>
</svg>
