<svg width="12" height="26" viewBox="0 0 12 26" fill="none" xmlns="http://www.w3.org/2000/svg">
<path d="M2.59374 5.03537C2.59374 5.69058 2.59374 8.61506 2.59374 8.61506H0V12.9923H2.59374V26H7.92182V12.9927H11.4972C11.4972 12.9927 11.8321 10.8938 11.9944 8.59892C11.529 8.59892 7.94197 8.59892 7.94197 8.59892C7.94197 8.59892 7.94197 6.05237 7.94197 5.60601C7.94197 5.15869 8.52289 4.55698 9.09706 4.55698C9.67015 4.55698 10.8797 4.55698 12 4.55698C12 3.96101 12 1.9018 12 1.56362e-08C10.5044 1.56362e-08 8.80298 1.56362e-08 8.05299 1.56362e-08C2.46203 -0.000302231 2.59374 4.38131 2.59374 5.03537Z" fill="#4267B2"/>
</svg>
