<svg width="24" height="24" viewBox="0 0 24 24" fill="none" xmlns="http://www.w3.org/2000/svg">
<path d="M16.5 0H7.5C3.3585 0 0 3.3585 0 7.5V16.5C0 20.6415 3.3585 24 7.5 24H16.5C20.6415 24 24 20.6415 24 16.5V7.5C24 3.3585 20.6415 0 16.5 0ZM21.75 16.5C21.75 19.395 19.395 21.75 16.5 21.75H7.5C4.605 21.75 2.25 19.395 2.25 16.5V7.5C2.25 4.605 4.605 2.25 7.5 2.25H16.5C19.395 2.25 21.75 4.605 21.75 7.5V16.5Z" fill="url(#paint0_radial)"/>
<path d="M16.5 0H7.5C3.3585 0 0 3.3585 0 7.5V16.5C0 20.6415 3.3585 24 7.5 24H16.5C20.6415 24 24 20.6415 24 16.5V7.5C24 3.3585 20.6415 0 16.5 0ZM21.75 16.5C21.75 19.395 19.395 21.75 16.5 21.75H7.5C4.605 21.75 2.25 19.395 2.25 16.5V7.5C2.25 4.605 4.605 2.25 7.5 2.25H16.5C19.395 2.25 21.75 4.605 21.75 7.5V16.5Z" fill="url(#paint1_radial)"/>
<path d="M6 0C2.6865 0 0 2.6865 0 6C0 9.3135 2.6865 12 6 12C9.3135 12 12 9.3135 12 6C12 2.6865 9.3135 0 6 0ZM6 9.75C3.933 9.75 2.25 8.067 2.25 6C2.25 3.9315 3.933 2.25 6 2.25C8.067 2.25 9.75 3.9315 9.75 6C9.75 8.067 8.067 9.75 6 9.75Z" transform="translate(6 6)" fill="url(#paint2_radial)"/>
<path d="M6 0C2.6865 0 0 2.6865 0 6C0 9.3135 2.6865 12 6 12C9.3135 12 12 9.3135 12 6C12 2.6865 9.3135 0 6 0ZM6 9.75C3.933 9.75 2.25 8.067 2.25 6C2.25 3.9315 3.933 2.25 6 2.25C8.067 2.25 9.75 3.9315 9.75 6C9.75 8.067 8.067 9.75 6 9.75Z" transform="translate(6 6)" fill="url(#paint3_radial)"/>
<path d="M0.7995 1.599C1.24105 1.599 1.599 1.24105 1.599 0.7995C1.599 0.357948 1.24105 0 0.7995 0C0.357948 0 0 0.357948 0 0.7995C0 1.24105 0.357948 1.599 0.7995 1.599Z" transform="translate(17.6504 4.75049)" fill="url(#paint4_radial)"/>
<path d="M0.7995 1.599C1.24105 1.599 1.599 1.24105 1.599 0.7995C1.599 0.357948 1.24105 0 0.7995 0C0.357948 0 0 0.357948 0 0.7995C0 1.24105 0.357948 1.599 0.7995 1.599Z" transform="translate(17.6504 4.75049)" fill="url(#paint5_radial)"/>
<defs>
<radialGradient id="paint0_radial" cx="0.5" cy="0.5" r="0.5" gradientUnits="userSpaceOnUse" gradientTransform="translate(-15.7476 49.6343) scale(44.2453 47.5715) rotate(-90)">
<stop stop-color="#FFDD55"/>
<stop offset="0.1" stop-color="#FFDD55"/>
<stop offset="0.5" stop-color="#FF543E"/>
<stop offset="1" stop-color="#C837AB"/>
</radialGradient>
<radialGradient id="paint1_radial" cx="0.5" cy="0.5" r="0.5" gradientUnits="userSpaceOnUse" gradientTransform="matrix(4.17378 20.851 -85.947 17.2138 36.8665 -17.3035)">
<stop stop-color="#3771C8"/>
<stop offset="0.128" stop-color="#3771C8"/>
<stop offset="1" stop-color="#6600FF" stop-opacity="0"/>
</radialGradient>
<radialGradient id="paint2_radial" cx="0.5" cy="0.5" r="0.5" gradientUnits="userSpaceOnUse" gradientTransform="translate(-7.8738 24.8171) scale(22.1226 23.7858) rotate(-90)">
<stop stop-color="#FFDD55"/>
<stop offset="0.1" stop-color="#FFDD55"/>
<stop offset="0.5" stop-color="#FF543E"/>
<stop offset="1" stop-color="#C837AB"/>
</radialGradient>
<radialGradient id="paint3_radial" cx="0.5" cy="0.5" r="0.5" gradientUnits="userSpaceOnUse" gradientTransform="matrix(2.08689 10.4255 -42.9735 8.60689 18.4333 -8.65175)">
<stop stop-color="#3771C8"/>
<stop offset="0.128" stop-color="#3771C8"/>
<stop offset="1" stop-color="#6600FF" stop-opacity="0"/>
</radialGradient>
<radialGradient id="paint4_radial" cx="0.5" cy="0.5" r="0.5" gradientUnits="userSpaceOnUse" gradientTransform="translate(-1.04918 3.30688) scale(2.94784 3.16945) rotate(-90)">
<stop stop-color="#FFDD55"/>
<stop offset="0.1" stop-color="#FFDD55"/>
<stop offset="0.5" stop-color="#FF543E"/>
<stop offset="1" stop-color="#C837AB"/>
</radialGradient>
<radialGradient id="paint5_radial" cx="0.5" cy="0.5" r="0.5" gradientUnits="userSpaceOnUse" gradientTransform="matrix(0.278078 1.3892 -5.72622 1.14687 2.45623 -1.15284)">
<stop stop-color="#3771C8"/>
<stop offset="0.128" stop-color="#3771C8"/>
<stop offset="1" stop-color="#6600FF" stop-opacity="0"/>
</radialGradient>
</defs>
</svg>
