<svg width="40" height="40" viewBox="0 0 40 40" fill="none" xmlns="http://www.w3.org/2000/svg">
<path d="M20 0C8.95467 0 0 8.95467 0 20C0 31.0453 8.95467 40 20 40C31.0453 40 40 31.0453 40 20C40 8.95467 31.0453 0 20 0ZM20 36C11.164 36 4 28.836 4 20C4 11.164 11.164 4 20 4C28.836 4 36 11.164 36 20C36 28.836 28.836 36 20 36ZM27.3244 25.3596C27.4529 27.0609 26.176 28.6098 24.4702 28.8222C22.7671 29.0338 21.2769 27.8267 21.1493 26.1258C21.0191 24.4267 22.3004 22.8756 24.0036 22.6649C24.5431 22.5987 25.0582 22.6733 25.5191 22.8596V14.5062L17.5191 15.9942V26.4298H17.5036C17.5071 26.4591 17.5147 26.4862 17.5147 26.5156C17.644 28.2169 16.3662 29.764 14.6631 29.9764C12.9564 30.1876 11.472 28.9804 11.3427 27.2813C11.2116 25.58 12.4893 24.0298 14.1942 23.8204C14.7333 23.752 15.2489 23.8289 15.7098 24.0173V11.9884V11.9862L27.3156 10.004L27.3267 10V10.0018L27.3311 10L27.3267 10.0529V25.2751H27.3111C27.3169 25.3049 27.3222 25.3298 27.3244 25.3596Z" fill="url(#paint0_linear)"/>
<defs>
<linearGradient id="paint0_linear" x2="1" gradientUnits="userSpaceOnUse" gradientTransform="translate(21.875 -9.375) scale(40.6971) rotate(47.4896)">
<stop stop-color="#FF5E50"/>
<stop offset="0.497238" stop-color="#AF7EB9"/>
<stop offset="1" stop-color="#22C8FE"/>
</linearGradient>
</defs>
</svg>
