<svg width="220" height="16" viewBox="0 0 220 16" fill="none" xmlns="http://www.w3.org/2000/svg">
<path d="M10.74 5.7C10.74 6.52667 10.5867 7.22667 10.28 7.8C9.97333 8.36 9.56 8.81333 9.04 9.16C8.52 9.50667 7.92 9.76 7.24 9.92C6.56 10.08 5.85333 10.16 5.12 10.16H3.42V15.5H0V1.34H5.2C5.97333 1.34 6.69333 1.42 7.36 1.58C8.04 1.72667 8.62667 1.97333 9.12 2.32C9.62667 2.65333 10.02 3.1 10.3 3.66C10.5933 4.20667 10.74 4.88667 10.74 5.7ZM7.32 5.72C7.32 5.38667 7.25333 5.11333 7.12 4.9C6.98667 4.68667 6.80667 4.52 6.58 4.4C6.35333 4.28 6.09333 4.2 5.8 4.16C5.52 4.12 5.22667 4.1 4.92 4.1H3.42V7.44H4.86C5.18 7.44 5.48667 7.41333 5.78 7.36C6.07333 7.30667 6.33333 7.21333 6.56 7.08C6.8 6.94667 6.98667 6.77333 7.12 6.56C7.25333 6.33333 7.32 6.05333 7.32 5.72Z" fill="#23221F"/>
<path d="M18.2136 8.22C18.0669 8.18 17.9203 8.15333 17.7736 8.14C17.6403 8.12667 17.5069 8.12 17.3736 8.12C16.9336 8.12 16.5603 8.2 16.2536 8.36C15.9603 8.52 15.7203 8.71333 15.5336 8.94C15.3603 9.16667 15.2336 9.41333 15.1536 9.68C15.0736 9.94667 15.0336 10.18 15.0336 10.38V15.5H11.7536V5.54H14.9136V6.98H14.9536C15.2069 6.47333 15.5669 6.06 16.0336 5.74C16.5003 5.42 17.0403 5.26 17.6536 5.26C17.7869 5.26 17.9136 5.26667 18.0336 5.28C18.1669 5.29333 18.2736 5.31333 18.3536 5.34L18.2136 8.22Z" fill="#23221F"/>
<path d="M29.8917 10.48C29.8917 11.2933 29.7451 12.0333 29.4517 12.7C29.1584 13.3533 28.7584 13.9133 28.2517 14.38C27.7451 14.8333 27.1584 15.1867 26.4917 15.44C25.8251 15.6933 25.1117 15.82 24.3517 15.82C23.6051 15.82 22.8917 15.6933 22.2117 15.44C21.5451 15.1867 20.9584 14.8333 20.4517 14.38C19.9584 13.9133 19.5651 13.3533 19.2717 12.7C18.9784 12.0333 18.8317 11.2933 18.8317 10.48C18.8317 9.66667 18.9784 8.93333 19.2717 8.28C19.5651 7.62667 19.9584 7.07333 20.4517 6.62C20.9584 6.16667 21.5451 5.82 22.2117 5.58C22.8917 5.34 23.6051 5.22 24.3517 5.22C25.1117 5.22 25.8251 5.34 26.4917 5.58C27.1584 5.82 27.7451 6.16667 28.2517 6.62C28.7584 7.07333 29.1584 7.62667 29.4517 8.28C29.7451 8.93333 29.8917 9.66667 29.8917 10.48ZM26.7317 10.48C26.7317 10.16 26.6784 9.84667 26.5717 9.54C26.4651 9.23333 26.3117 8.96667 26.1117 8.74C25.9117 8.5 25.6651 8.30667 25.3717 8.16C25.0784 8.01333 24.7384 7.94 24.3517 7.94C23.9651 7.94 23.6251 8.01333 23.3317 8.16C23.0384 8.30667 22.7917 8.5 22.5917 8.74C22.4051 8.96667 22.2584 9.23333 22.1517 9.54C22.0584 9.84667 22.0117 10.16 22.0117 10.48C22.0117 10.8 22.0584 11.1133 22.1517 11.42C22.2584 11.7267 22.4117 12.0067 22.6117 12.26C22.8117 12.5 23.0584 12.6933 23.3517 12.84C23.6451 12.9867 23.9851 13.06 24.3717 13.06C24.7584 13.06 25.0984 12.9867 25.3917 12.84C25.6851 12.6933 25.9317 12.5 26.1317 12.26C26.3317 12.0067 26.4784 11.7267 26.5717 11.42C26.6784 11.1133 26.7317 10.8 26.7317 10.48Z" fill="#23221F"/>
<path d="M39.5084 15.5V14.2H39.4684C39.1484 14.7067 38.6884 15.1 38.0884 15.38C37.5018 15.6467 36.8751 15.78 36.2084 15.78C35.4618 15.78 34.7951 15.6333 34.2084 15.34C33.6218 15.0467 33.1218 14.66 32.7084 14.18C32.3084 13.6867 32.0018 13.12 31.7884 12.48C31.5751 11.84 31.4684 11.1733 31.4684 10.48C31.4684 9.78667 31.5751 9.12667 31.7884 8.5C32.0151 7.86 32.3284 7.3 32.7284 6.82C33.1418 6.34 33.6351 5.96 34.2084 5.68C34.7951 5.4 35.4484 5.26 36.1684 5.26C36.9018 5.26 37.5218 5.4 38.0284 5.68C38.5351 5.96 38.9284 6.26667 39.2084 6.6H39.2484V0.38H42.5284V15.5H39.5084ZM39.3884 10.5C39.3884 10.18 39.3284 9.86667 39.2084 9.56C39.1018 9.25333 38.9418 8.98 38.7284 8.74C38.5284 8.5 38.2818 8.30667 37.9884 8.16C37.6951 8.01333 37.3618 7.94 36.9884 7.94C36.6018 7.94 36.2618 8.01333 35.9684 8.16C35.6751 8.30667 35.4284 8.5 35.2284 8.74C35.0284 8.96667 34.8751 9.23333 34.7684 9.54C34.6751 9.84667 34.6284 10.16 34.6284 10.48C34.6284 10.8 34.6751 11.12 34.7684 11.44C34.8751 11.7467 35.0284 12.02 35.2284 12.26C35.4284 12.5 35.6751 12.6933 35.9684 12.84C36.2618 12.9867 36.6018 13.06 36.9884 13.06C37.3618 13.06 37.6951 12.9867 37.9884 12.84C38.2818 12.6933 38.5284 12.5 38.7284 12.26C38.9418 12.02 39.1018 11.7467 39.2084 11.44C39.3284 11.1333 39.3884 10.82 39.3884 10.5Z" fill="#23221F"/>
<path d="M51.6925 15.5V14.12H51.6525C51.5325 14.3467 51.3725 14.56 51.1725 14.76C50.9858 14.96 50.7592 15.1333 50.4925 15.28C50.2392 15.4267 49.9525 15.5467 49.6325 15.64C49.3258 15.7333 48.9992 15.78 48.6525 15.78C47.9858 15.78 47.4192 15.66 46.9525 15.42C46.4992 15.18 46.1258 14.8733 45.8325 14.5C45.5525 14.1133 45.3458 13.68 45.2125 13.2C45.0925 12.7067 45.0325 12.2067 45.0325 11.7V5.54H48.3325V10.94C48.3325 11.22 48.3525 11.4867 48.3925 11.74C48.4325 11.9933 48.5058 12.22 48.6125 12.42C48.7325 12.62 48.8858 12.78 49.0725 12.9C49.2592 13.0067 49.5058 13.06 49.8125 13.06C50.3858 13.06 50.8192 12.8467 51.1125 12.42C51.4192 11.9933 51.5725 11.4933 51.5725 10.92V5.54H54.8525V15.5H51.6925Z" fill="#23221F"/>
<path d="M64.2777 8.76C64.091 8.52 63.8377 8.32667 63.5177 8.18C63.1977 8.03333 62.871 7.96 62.5377 7.96C62.191 7.96 61.8777 8.03333 61.5977 8.18C61.3177 8.31333 61.0777 8.5 60.8777 8.74C60.6777 8.96667 60.5177 9.23333 60.3977 9.54C60.291 9.84667 60.2377 10.1733 60.2377 10.52C60.2377 10.8667 60.291 11.1933 60.3977 11.5C60.5043 11.8067 60.6577 12.08 60.8577 12.32C61.071 12.5467 61.3177 12.7267 61.5977 12.86C61.891 12.9933 62.2177 13.06 62.5777 13.06C62.911 13.06 63.2377 13 63.5577 12.88C63.891 12.7467 64.1577 12.56 64.3577 12.32L66.1777 14.54C65.7643 14.94 65.231 15.2533 64.5777 15.48C63.9243 15.7067 63.231 15.82 62.4977 15.82C61.711 15.82 60.9777 15.7 60.2977 15.46C59.6177 15.22 59.0243 14.8733 58.5177 14.42C58.0243 13.9533 57.631 13.3933 57.3377 12.74C57.0577 12.0867 56.9177 11.3467 56.9177 10.52C56.9177 9.70667 57.0577 8.97333 57.3377 8.32C57.631 7.66667 58.0243 7.11333 58.5177 6.66C59.0243 6.19333 59.6177 5.84 60.2977 5.6C60.9777 5.34667 61.7043 5.22 62.4777 5.22C62.8377 5.22 63.191 5.25333 63.5377 5.32C63.8977 5.38667 64.2377 5.48 64.5577 5.6C64.891 5.70667 65.191 5.84667 65.4577 6.02C65.7377 6.18 65.9777 6.36 66.1777 6.56L64.2777 8.76Z" fill="#23221F"/>
<path d="M71.0362 8V11.8C71.0362 12.2667 71.1229 12.62 71.2962 12.86C71.4829 13.0867 71.8096 13.2 72.2763 13.2C72.4363 13.2 72.6029 13.1867 72.7763 13.16C72.9629 13.1333 73.1163 13.0933 73.2363 13.04L73.2763 15.44C73.0496 15.52 72.7629 15.5867 72.4163 15.64C72.0696 15.7067 71.7229 15.74 71.3763 15.74C70.7096 15.74 70.1496 15.66 69.6963 15.5C69.2429 15.3267 68.8763 15.0867 68.5963 14.78C68.3296 14.46 68.1363 14.0867 68.0163 13.66C67.8963 13.22 67.8363 12.7333 67.8363 12.2V8H66.2363V5.54H67.8163V2.92H71.0362V5.54H73.3763V8H71.0362Z" fill="#23221F"/>
<path d="M91.1377 11.38C91.1377 12.1533 90.9843 12.8067 90.6777 13.34C90.371 13.86 89.9643 14.28 89.4577 14.6C88.951 14.92 88.371 15.1533 87.7177 15.3C87.0777 15.4333 86.4177 15.5 85.7377 15.5H80.0977V1.34H85.7377C86.2843 1.34 86.8443 1.4 87.4177 1.52C87.991 1.62667 88.511 1.82 88.9777 2.1C89.4443 2.36667 89.8243 2.73333 90.1177 3.2C90.411 3.66667 90.5577 4.26 90.5577 4.98C90.5577 5.76667 90.3443 6.42 89.9177 6.94C89.491 7.44667 88.931 7.81333 88.2377 8.04V8.08C88.6377 8.14667 89.011 8.27333 89.3577 8.46C89.7177 8.63333 90.0243 8.86 90.2777 9.14C90.5443 9.42 90.751 9.74667 90.8977 10.12C91.0577 10.4933 91.1377 10.9133 91.1377 11.38ZM87.2577 5.44C87.2577 4.96 87.071 4.61333 86.6977 4.4C86.3377 4.17333 85.7977 4.06 85.0777 4.06H83.3977V6.98H85.2377C85.8777 6.98 86.371 6.85333 86.7177 6.6C87.0777 6.33333 87.2577 5.94667 87.2577 5.44ZM87.7177 11.06C87.7177 10.4733 87.4977 10.0667 87.0577 9.84C86.6177 9.61333 86.031 9.5 85.2977 9.5H83.3977V12.74H85.3177C85.5843 12.74 85.8577 12.72 86.1377 12.68C86.431 12.6267 86.691 12.54 86.9177 12.42C87.1577 12.3 87.351 12.1333 87.4977 11.92C87.6443 11.6933 87.7177 11.4067 87.7177 11.06Z" fill="#23221F"/>
<path d="M99.6784 8.22C99.5318 8.18 99.3851 8.15333 99.2384 8.14C99.1051 8.12667 98.9718 8.12 98.8384 8.12C98.3984 8.12 98.0251 8.2 97.7184 8.36C97.4251 8.52 97.1851 8.71333 96.9984 8.94C96.8251 9.16667 96.6984 9.41333 96.6184 9.68C96.5384 9.94667 96.4984 10.18 96.4984 10.38V15.5H93.2184V5.54H96.3784V6.98H96.4184C96.6718 6.47333 97.0318 6.06 97.4984 5.74C97.9651 5.42 98.5051 5.26 99.1184 5.26C99.2518 5.26 99.3784 5.26667 99.4984 5.28C99.6318 5.29333 99.7384 5.31333 99.8184 5.34L99.6784 8.22Z" fill="#23221F"/>
<path d="M107.657 9.38C107.657 8.86 107.49 8.41333 107.157 8.04C106.837 7.66667 106.35 7.48 105.697 7.48C105.377 7.48 105.083 7.53333 104.817 7.64C104.55 7.73333 104.317 7.86667 104.117 8.04C103.917 8.21333 103.757 8.42 103.637 8.66C103.517 8.88667 103.45 9.12667 103.437 9.38H107.657ZM110.677 10.64C110.677 10.7733 110.677 10.9067 110.677 11.04C110.677 11.1733 110.67 11.3 110.657 11.42H103.437C103.463 11.7 103.543 11.9533 103.677 12.18C103.823 12.4067 104.003 12.6067 104.217 12.78C104.443 12.94 104.69 13.0667 104.957 13.16C105.237 13.2533 105.523 13.3 105.817 13.3C106.337 13.3 106.777 13.2067 107.137 13.02C107.497 12.82 107.79 12.5667 108.017 12.26L110.297 13.7C109.83 14.38 109.21 14.9067 108.437 15.28C107.677 15.64 106.79 15.82 105.777 15.82C105.03 15.82 104.323 15.7067 103.657 15.48C102.99 15.24 102.403 14.9 101.897 14.46C101.403 14.0067 101.01 13.4533 100.717 12.8C100.437 12.1467 100.297 11.4 100.297 10.56C100.297 9.74667 100.437 9.01333 100.717 8.36C100.997 7.69333 101.377 7.13333 101.857 6.68C102.337 6.21333 102.903 5.85333 103.557 5.6C104.21 5.34667 104.917 5.22 105.677 5.22C106.41 5.22 107.083 5.34667 107.697 5.6C108.31 5.84 108.837 6.19333 109.277 6.66C109.717 7.12667 110.057 7.69333 110.297 8.36C110.55 9.02667 110.677 9.78667 110.677 10.64Z" fill="#23221F"/>
<path d="M118.473 11.16H118.053C117.693 11.16 117.327 11.18 116.953 11.22C116.593 11.2467 116.267 11.3067 115.973 11.4C115.693 11.4933 115.46 11.6333 115.273 11.82C115.087 11.9933 114.993 12.2267 114.993 12.52C114.993 12.7067 115.033 12.8667 115.113 13C115.207 13.1333 115.32 13.24 115.453 13.32C115.587 13.4 115.74 13.46 115.913 13.5C116.087 13.5267 116.253 13.54 116.413 13.54C117.08 13.54 117.587 13.36 117.933 13C118.293 12.6267 118.473 12.1267 118.473 11.5V11.16ZM112.453 6.9C113.04 6.34 113.72 5.92 114.493 5.64C115.28 5.36 116.08 5.22 116.893 5.22C117.733 5.22 118.44 5.32667 119.013 5.54C119.6 5.74 120.073 6.06 120.433 6.5C120.793 6.92667 121.053 7.47333 121.213 8.14C121.387 8.79333 121.473 9.57333 121.473 10.48V15.5H118.473V14.44H118.413C118.16 14.8533 117.773 15.1733 117.253 15.4C116.747 15.6267 116.193 15.74 115.593 15.74C115.193 15.74 114.78 15.6867 114.353 15.58C113.927 15.4733 113.533 15.3 113.173 15.06C112.827 14.82 112.54 14.5 112.313 14.1C112.087 13.7 111.973 13.2067 111.973 12.62C111.973 11.9 112.167 11.32 112.553 10.88C112.953 10.44 113.46 10.1 114.073 9.86C114.7 9.62 115.393 9.46 116.153 9.38C116.913 9.3 117.653 9.26 118.373 9.26V9.1C118.373 8.60667 118.2 8.24667 117.853 8.02C117.507 7.78 117.08 7.66 116.573 7.66C116.107 7.66 115.653 7.76 115.213 7.96C114.787 8.16 114.42 8.4 114.113 8.68L112.453 6.9Z" fill="#23221F"/>
<path d="M134.622 15.5H130.562L127.302 10.72H127.242V15.5H123.942V0.38H127.242V9.58H127.302L130.482 5.54H134.462L130.622 10.04L134.622 15.5Z" fill="#23221F"/>
<path d="M141.996 2.8C141.876 2.76 141.736 2.72667 141.576 2.7C141.416 2.67333 141.256 2.66 141.096 2.66C140.789 2.66 140.543 2.71333 140.356 2.82C140.169 2.92667 140.023 3.07333 139.916 3.26C139.809 3.43333 139.736 3.63333 139.696 3.86C139.656 4.08667 139.636 4.31333 139.636 4.54V5.54H141.856V8H139.636V15.5H136.356V8H134.536V5.54H136.356V4.58C136.356 3.96667 136.423 3.38667 136.556 2.84C136.689 2.28 136.916 1.79333 137.236 1.38C137.569 0.953333 138.009 0.62 138.556 0.38C139.116 0.126667 139.809 0 140.636 0C140.916 0 141.189 0.0200001 141.456 0.0600004C141.736 0.0866667 141.989 0.133333 142.216 0.2L141.996 2.8Z" fill="#23221F"/>
<path d="M148.981 11.16H148.561C148.201 11.16 147.835 11.18 147.461 11.22C147.101 11.2467 146.775 11.3067 146.481 11.4C146.201 11.4933 145.968 11.6333 145.781 11.82C145.595 11.9933 145.501 12.2267 145.501 12.52C145.501 12.7067 145.541 12.8667 145.621 13C145.715 13.1333 145.828 13.24 145.961 13.32C146.095 13.4 146.248 13.46 146.421 13.5C146.595 13.5267 146.761 13.54 146.921 13.54C147.588 13.54 148.095 13.36 148.441 13C148.801 12.6267 148.981 12.1267 148.981 11.5V11.16ZM142.961 6.9C143.548 6.34 144.228 5.92 145.001 5.64C145.788 5.36 146.588 5.22 147.401 5.22C148.241 5.22 148.948 5.32667 149.521 5.54C150.108 5.74 150.581 6.06 150.941 6.5C151.301 6.92667 151.561 7.47333 151.721 8.14C151.895 8.79333 151.981 9.57333 151.981 10.48V15.5H148.981V14.44H148.921C148.668 14.8533 148.281 15.1733 147.761 15.4C147.255 15.6267 146.701 15.74 146.101 15.74C145.701 15.74 145.288 15.6867 144.861 15.58C144.435 15.4733 144.041 15.3 143.681 15.06C143.335 14.82 143.048 14.5 142.821 14.1C142.595 13.7 142.481 13.2067 142.481 12.62C142.481 11.9 142.675 11.32 143.061 10.88C143.461 10.44 143.968 10.1 144.581 9.86C145.208 9.62 145.901 9.46 146.661 9.38C147.421 9.3 148.161 9.26 148.881 9.26V9.1C148.881 8.60667 148.708 8.24667 148.361 8.02C148.015 7.78 147.588 7.66 147.081 7.66C146.615 7.66 146.161 7.76 145.721 7.96C145.295 8.16 144.928 8.4 144.621 8.68L142.961 6.9Z" fill="#23221F"/>
<path d="M160.289 8.48C160.023 8.22667 159.709 8.01333 159.349 7.84C158.989 7.66667 158.609 7.58 158.209 7.58C157.903 7.58 157.616 7.64 157.349 7.76C157.096 7.88 156.969 8.08667 156.969 8.38C156.969 8.66 157.109 8.86 157.389 8.98C157.683 9.1 158.149 9.23333 158.789 9.38C159.163 9.46 159.536 9.57333 159.909 9.72C160.296 9.86667 160.643 10.06 160.949 10.3C161.256 10.54 161.503 10.8333 161.689 11.18C161.876 11.5267 161.969 11.94 161.969 12.42C161.969 13.0467 161.843 13.58 161.589 14.02C161.336 14.4467 161.003 14.7933 160.589 15.06C160.189 15.3267 159.736 15.52 159.229 15.64C158.723 15.76 158.216 15.82 157.709 15.82C156.896 15.82 156.096 15.6933 155.309 15.44C154.536 15.1733 153.889 14.7867 153.369 14.28L155.209 12.34C155.503 12.66 155.863 12.9267 156.289 13.14C156.716 13.3533 157.169 13.46 157.649 13.46C157.916 13.46 158.176 13.4 158.429 13.28C158.696 13.1467 158.829 12.92 158.829 12.6C158.829 12.2933 158.669 12.0667 158.349 11.92C158.029 11.7733 157.529 11.62 156.849 11.46C156.503 11.38 156.156 11.2733 155.809 11.14C155.463 11.0067 155.149 10.8267 154.869 10.6C154.603 10.3733 154.383 10.0933 154.209 9.76C154.036 9.42667 153.949 9.02667 153.949 8.56C153.949 7.96 154.076 7.45333 154.329 7.04C154.583 6.61333 154.909 6.26667 155.309 6C155.709 5.73333 156.149 5.54 156.629 5.42C157.123 5.28667 157.609 5.22 158.089 5.22C158.836 5.22 159.563 5.34 160.269 5.58C160.989 5.80667 161.596 6.15333 162.089 6.62L160.289 8.48Z" fill="#23221F"/>
<path d="M167.423 8V11.8C167.423 12.2667 167.51 12.62 167.683 12.86C167.87 13.0867 168.196 13.2 168.663 13.2C168.823 13.2 168.99 13.1867 169.163 13.16C169.35 13.1333 169.503 13.0933 169.623 13.04L169.663 15.44C169.436 15.52 169.15 15.5867 168.803 15.64C168.456 15.7067 168.11 15.74 167.763 15.74C167.096 15.74 166.536 15.66 166.083 15.5C165.63 15.3267 165.263 15.0867 164.983 14.78C164.716 14.46 164.523 14.0867 164.403 13.66C164.283 13.22 164.223 12.7333 164.223 12.2V8H162.623V5.54H164.203V2.92H167.423V5.54H169.763V8H167.423Z" fill="#23221F"/>
<path d="M188.944 13.54C188.318 14.26 187.544 14.8333 186.624 15.26C185.704 15.6733 184.644 15.88 183.444 15.88C182.351 15.88 181.338 15.7 180.404 15.34C179.484 14.98 178.684 14.4733 178.004 13.82C177.324 13.1533 176.791 12.36 176.404 11.44C176.018 10.52 175.824 9.50667 175.824 8.4C175.824 7.26667 176.018 6.24 176.404 5.32C176.804 4.4 177.351 3.62 178.044 2.98C178.738 2.32667 179.551 1.82667 180.484 1.48C181.418 1.13333 182.424 0.96 183.504 0.96C184.504 0.96 185.484 1.14 186.444 1.5C187.418 1.84667 188.204 2.36 188.804 3.04L186.484 5.36C186.164 4.92 185.744 4.59333 185.224 4.38C184.704 4.16667 184.171 4.06 183.624 4.06C183.024 4.06 182.471 4.17333 181.964 4.4C181.471 4.61333 181.044 4.91333 180.684 5.3C180.324 5.68667 180.044 6.14667 179.844 6.68C179.644 7.2 179.544 7.77333 179.544 8.4C179.544 9.04 179.644 9.62667 179.844 10.16C180.044 10.6933 180.318 11.1533 180.664 11.54C181.024 11.9133 181.451 12.2067 181.944 12.42C182.438 12.6333 182.978 12.74 183.564 12.74C184.244 12.74 184.838 12.6067 185.344 12.34C185.851 12.0733 186.258 11.7267 186.564 11.3L188.944 13.54Z" fill="#23221F"/>
<path d="M190.27 15.5V0.38H193.59V15.5H190.27Z" fill="#23221F"/>
<path d="M202.747 15.5V14.12H202.707C202.587 14.3467 202.427 14.56 202.227 14.76C202.041 14.96 201.814 15.1333 201.547 15.28C201.294 15.4267 201.007 15.5467 200.687 15.64C200.381 15.7333 200.054 15.78 199.707 15.78C199.041 15.78 198.474 15.66 198.007 15.42C197.554 15.18 197.181 14.8733 196.887 14.5C196.607 14.1133 196.401 13.68 196.267 13.2C196.147 12.7067 196.087 12.2067 196.087 11.7V5.54H199.387V10.94C199.387 11.22 199.407 11.4867 199.447 11.74C199.487 11.9933 199.561 12.22 199.667 12.42C199.787 12.62 199.941 12.78 200.127 12.9C200.314 13.0067 200.561 13.06 200.867 13.06C201.441 13.06 201.874 12.8467 202.167 12.42C202.474 11.9933 202.627 11.4933 202.627 10.92V5.54H205.907V15.5H202.747Z" fill="#23221F"/>
<path d="M219.572 10.48C219.572 11.1733 219.466 11.84 219.252 12.48C219.039 13.12 218.726 13.6867 218.312 14.18C217.912 14.66 217.419 15.0467 216.832 15.34C216.246 15.6333 215.579 15.78 214.832 15.78C214.166 15.78 213.532 15.6467 212.932 15.38C212.346 15.1 211.892 14.7067 211.572 14.2H211.532V15.5H208.512V0.38H211.792V6.6H211.832C212.112 6.26667 212.506 5.96 213.012 5.68C213.519 5.4 214.139 5.26 214.872 5.26C215.592 5.26 216.239 5.4 216.812 5.68C217.399 5.96 217.892 6.34 218.292 6.82C218.706 7.3 219.019 7.86 219.232 8.5C219.459 9.12667 219.572 9.78667 219.572 10.48ZM216.412 10.48C216.412 10.16 216.359 9.84667 216.252 9.54C216.159 9.23333 216.012 8.96667 215.812 8.74C215.612 8.5 215.366 8.30667 215.072 8.16C214.779 8.01333 214.439 7.94 214.052 7.94C213.679 7.94 213.346 8.01333 213.052 8.16C212.759 8.30667 212.506 8.5 212.292 8.74C212.092 8.98 211.932 9.25333 211.812 9.56C211.706 9.86667 211.652 10.18 211.652 10.5C211.652 10.82 211.706 11.1333 211.812 11.44C211.932 11.7467 212.092 12.02 212.292 12.26C212.506 12.5 212.759 12.6933 213.052 12.84C213.346 12.9867 213.679 13.06 214.052 13.06C214.439 13.06 214.779 12.9867 215.072 12.84C215.366 12.6933 215.612 12.5 215.812 12.26C216.012 12.02 216.159 11.7467 216.252 11.44C216.359 11.12 216.412 10.8 216.412 10.48Z" fill="#23221F"/>
</svg>
