<svg width="40" height="40" viewBox="0 0 40 40" fill="none" xmlns="http://www.w3.org/2000/svg">
<circle cx="20" cy="20" r="20" fill="#FF5500"/>
<path d="M10.3125 7.77778C9.97875 7.77778 9.65063 7.81472 9.33562 7.88472C8.91375 3.465 5.30813 0 0.9375 0C0.42 0 0 0.435556 0 0.972222V16.5278C0 17.0644 0.42 17.5 0.9375 17.5H10.3125C12.8981 17.5 15 15.3203 15 12.6389C15 9.95944 12.8981 7.77778 10.3125 7.77778Z" transform="translate(20 11.25)" fill="white"/>
<path d="M0.9375 0C0.42 0 0 0.435556 0 0.972222V14.5833C0 15.12 0.42 15.5556 0.9375 15.5556C1.455 15.5556 1.875 15.12 1.875 14.5833V0.972222C1.875 0.435556 1.455 0 0.9375 0Z" transform="translate(16.25 13.1945)" fill="white"/>
<path d="M0.9375 0C0.42 0 0 0.435556 0 0.972222V10.6944C0 11.2311 0.42 11.6667 0.9375 11.6667C1.455 11.6667 1.875 11.2311 1.875 10.6944V0.972222C1.875 0.435556 1.455 0 0.9375 0Z" transform="translate(12.5 17.0833)" fill="white"/>
<path d="M0.9375 0C0.42 0 0 0.435556 0 0.972222V10.6944C0 11.2311 0.42 11.6667 0.9375 11.6667C1.455 11.6667 1.875 11.2311 1.875 10.6944V0.972222C1.875 0.435556 1.455 0 0.9375 0Z" transform="translate(8.75 17.0833)" fill="white"/>
<path d="M0.9375 0C0.42 0 0 0.435556 0 0.972222V6.80556C0 7.34222 0.42 7.77778 0.9375 7.77778C1.455 7.77778 1.875 7.34222 1.875 6.80556V0.972222C1.875 0.435556 1.455 0 0.9375 0Z" transform="translate(5 20)" fill="white"/>
</svg>
